<?xml version="1.0" standalone="no"?>
<!DOCTYPE svg PUBLIC "-//W3C//DTD SVG 20010904//EN"
 "http://www.w3.org/TR/2001/REC-SVG-20010904/DTD/svg10.dtd">
<svg version="1.0" xmlns="http://www.w3.org/2000/svg"
 width="1080.000000pt" height="1080.000000pt" viewBox="0 0 1080.000000 1080.000000"
 preserveAspectRatio="xMidYMid meet">
<metadata>
Created by potrace 1.11, written by Peter Selinger 2001-2013
</metadata>
<g transform="translate(0.000000,1080.000000) scale(0.100000,-0.100000)"
fill="#000000" stroke="none">
<path d="M0 5400 l0 -5400 5400 0 5400 0 0 5400 0 5400 -5400 0 -5400 0 0
-5400z m10050 -660 l0 -1100 -2880 0 -2880 0 0 159 0 158 45 6 c89 13 191 87
232 169 54 107 56 126 62 673 6 540 7 550 54 559 67 14 77 17 77 29 0 9 -49
12 -205 12 -156 0 -205 -3 -205 -12 0 -7 11 -15 25 -18 14 -3 36 -7 50 -10 54
-11 55 -20 55 -569 0 -521 -6 -630 -40 -695 -29 -58 -97 -111 -141 -111 -5 0
-9 358 -9 925 l0 925 2880 0 2880 0 0 -1100z m-8756 279 c66 -209 123 -382
126 -384 3 -2 23 47 43 109 l37 113 -90 263 c-49 145 -90 267 -90 272 0 5 64
7 142 6 l142 -3 47 -163 c26 -90 48 -165 51 -167 2 -2 25 72 52 166 l49 169
145 0 c133 0 144 -1 137 -17 -28 -73 -176 -511 -177 -523 -2 -29 75 -232 82
-218 6 10 131 402 221 696 l20 62 170 0 c133 0 170 -3 166 -12 -2 -7 -103
-264 -222 -570 l-219 -558 -130 0 -131 0 -80 201 c-53 136 -82 197 -88 188 -4
-8 -41 -97 -81 -199 l-74 -185 -132 0 -132 0 -219 560 c-120 308 -219 563
-219 568 0 4 75 7 168 7 l167 0 119 -381z m1805 82 c33 -10 80 -30 103 -44 60
-35 135 -117 163 -180 30 -66 50 -181 41 -241 l-7 -46 -295 0 c-323 0 -311 3
-279 -60 40 -78 189 -87 257 -16 l31 32 123 -35 c74 -21 124 -40 124 -47 0
-25 -110 -131 -167 -161 -78 -41 -147 -56 -257 -55 -297 2 -489 216 -447 500
26 175 131 299 299 353 79 25 230 25 311 0z m939 -2 c90 -22 193 -62 193 -73
1 -4 -23 -47 -53 -97 -37 -63 -58 -89 -68 -85 -8 2 -53 18 -100 35 -91 33
-195 42 -218 19 -16 -16 -15 -43 3 -58 7 -6 75 -29 149 -51 151 -43 198 -64
252 -111 46 -41 64 -83 64 -149 0 -133 -73 -223 -215 -264 -129 -38 -401 -8
-552 61 l-42 19 54 95 c30 52 56 99 58 105 2 5 35 -5 74 -22 134 -60 282 -82
317 -47 9 8 16 19 16 23 0 21 -45 43 -157 76 -149 44 -203 67 -249 107 -50 44
-64 77 -64 150 1 129 83 230 223 273 67 21 220 18 315 -6z"/>
<path d="M9375 5520 c-16 -4 -74 -8 -127 -9 -74 -1 -98 -4 -98 -14 0 -7 19
-17 42 -23 27 -6 49 -19 62 -37 21 -28 21 -40 24 -530 2 -276 0 -517 -3 -535
-7 -38 -40 -72 -71 -72 -32 0 -54 -10 -54 -25 0 -9 47 -12 200 -12 160 0 200
3 200 13 0 8 -12 16 -27 20 -57 12 -64 16 -81 42 -15 24 -17 77 -20 609 -1
321 -6 582 -10 582 -4 -1 -20 -5 -37 -9z"/>
<path d="M5132 5105 c-96 -27 -152 -68 -199 -147 -45 -74 -63 -154 -63 -275 0
-172 35 -278 118 -354 74 -68 120 -84 247 -84 100 0 115 3 167 28 130 64 198
201 198 402 0 213 -82 365 -226 418 -67 25 -176 31 -242 12z m197 -53 c75 -56
111 -176 111 -377 0 -255 -64 -388 -193 -402 -83 -10 -154 48 -192 157 -40
113 -39 376 1 496 18 56 54 107 90 131 54 35 132 33 183 -5z"/>
<path d="M7130 5111 c-73 -23 -121 -65 -164 -141 l-26 -45 0 92 0 93 -47 -8
c-27 -4 -87 -7 -136 -7 -76 0 -87 -2 -87 -17 0 -12 8 -18 25 -18 14 0 39 -13
57 -29 l33 -29 3 -299 c2 -164 1 -312 -3 -329 -8 -46 -27 -66 -71 -73 -23 -4
-40 -12 -42 -22 -2 -13 25 -15 218 -16 181 -1 220 1 220 13 0 14 -11 17 -82
29 -24 4 -46 16 -62 36 l-26 31 0 226 c0 244 6 286 53 358 46 72 89 107 142
117 51 9 63 -6 32 -43 -34 -40 -35 -83 -2 -115 52 -53 136 -20 150 59 8 41
-14 87 -55 117 -29 22 -94 32 -130 20z"/>
<path d="M7848 5106 c-26 -7 -63 -23 -82 -37 -34 -23 -86 -86 -99 -119 -3 -8
-6 24 -6 72 l-1 88 -47 -8 c-27 -4 -87 -7 -136 -7 -76 0 -87 -2 -87 -17 0 -12
8 -18 25 -18 14 0 39 -13 57 -29 l33 -29 3 -299 c2 -164 1 -312 -3 -329 -8
-46 -27 -66 -71 -73 -24 -4 -40 -12 -42 -22 -3 -14 19 -16 183 -16 162 0 185
2 183 16 -2 8 -18 18 -36 22 -60 12 -61 18 -62 296 0 233 2 257 21 310 40 109
139 174 232 154 44 -11 63 -25 83 -62 11 -23 14 -88 14 -337 0 -295 -1 -310
-20 -335 -11 -14 -33 -27 -48 -29 -15 -2 -28 -10 -30 -19 -2 -14 19 -16 183
-16 165 0 186 2 183 16 -2 9 -12 17 -23 19 -95 14 -95 14 -95 341 0 163 -4
291 -11 323 -26 122 -154 183 -301 144z"/>
<path d="M8629 5110 c-173 -31 -273 -158 -190 -241 59 -59 150 -22 151 62 0
39 -31 89 -56 89 -27 0 -13 18 30 40 32 15 64 21 111 21 72 0 103 -13 132 -58
22 -34 30 -196 11 -233 -13 -25 -60 -51 -238 -133 -153 -70 -203 -126 -203
-227 0 -63 20 -110 60 -138 103 -71 255 -51 347 48 36 39 46 45 46 29 0 -11 9
-37 20 -58 21 -43 58 -61 122 -61 64 0 154 48 132 70 -8 8 -19 6 -41 -7 -25
-14 -36 -15 -55 -6 -34 15 -38 52 -38 368 0 169 -4 274 -11 296 -18 54 -58
100 -104 120 -49 22 -161 31 -226 19z m170 -711 c-73 -92 -193 -110 -254 -37
-25 29 -27 38 -23 104 5 100 31 131 174 206 59 32 113 63 118 68 8 8 12 -36
14 -145 l3 -156 -32 -40z"/>
<path d="M5890 5099 c-25 -5 -78 -8 -118 -7 -63 3 -72 1 -72 -14 0 -12 8 -18
24 -18 34 0 74 -36 86 -78 5 -21 10 -150 10 -298 0 -298 7 -342 64 -392 47
-41 96 -55 175 -50 102 8 179 58 227 148 l19 35 3 -91 3 -92 37 9 c20 5 81 9
135 9 72 0 97 3 97 13 0 7 -20 18 -45 25 -81 22 -80 13 -83 440 l-3 374 -22
-7 c-12 -4 -71 -9 -132 -11 -80 -3 -111 -7 -113 -17 -2 -8 13 -17 39 -23 28
-6 49 -19 63 -37 20 -27 21 -41 21 -265 0 -262 -7 -300 -66 -382 -57 -79 -171
-105 -230 -52 -27 24 -32 37 -39 102 -5 41 -9 213 -10 383 0 239 -3 307 -12
306 -7 -1 -33 -5 -58 -10z"/>
<path d="M2925 4905 c-5 -2 -22 -6 -37 -9 -30 -7 -72 -57 -82 -98 l-6 -28 140
0 140 0 -6 28 c-10 41 -52 91 -82 98 -53 12 -57 12 -67 9z"/>
</g>
</svg>
